<svg width="16" height="16" viewBox="0 0 16 16" fill="none" xmlns="http://www.w3.org/2000/svg">
<path d="M5.16929 4.25545C5.63856 3.91419 6.068 3.96049 6.51166 4.29226C6.85376 4.54808 7.22732 4.75568 7.58699 4.98453C7.67394 5.03985 7.76763 5.09222 7.80262 5.20111C7.9191 5.56359 8.031 5.92779 8.10531 6.33875C7.73045 6.31276 7.4047 6.40012 7.11908 6.64756C6.97463 6.41576 6.94871 6.17091 6.88465 5.94353C6.83019 5.75029 6.7131 5.67089 6.55124 5.58388C5.94908 5.26019 5.43358 5.39414 4.88718 5.77639C4.22916 6.23672 3.524 6.62133 2.82962 7.01949C2.64465 7.12555 2.56473 7.2514 2.53938 7.46931C2.46055 8.14675 2.07044 8.57173 1.44701 8.69092C0.75707 8.82283 0.0820758 8.22972 0.00546393 7.42425C-0.0625085 6.70961 0.513578 6.00737 1.18359 5.98535C1.40363 5.97812 1.6211 5.98173 1.81924 6.10308C1.927 6.16908 2.02528 6.14587 2.12802 6.0862C3.14501 5.49568 4.16188 4.90497 5.16929 4.25545ZM0.861795 6.6242C0.51913 6.89053 0.40138 7.31314 0.565277 7.68843C0.716046 8.03365 1.09306 8.24649 1.41163 8.16793C1.73221 8.08888 1.96396 7.89565 2.04076 7.54696C2.11036 7.2309 2.04979 6.92738 1.8091 6.7137C1.53561 6.47089 1.22392 6.41645 0.861795 6.6242Z" fill="#F1F1F1"/>
<path d="M10.2309 5.0342C10.231 5.15982 10.2152 5.26214 10.2335 5.35691C10.3856 6.14391 9.97572 6.66188 9.49426 7.14647C9.46589 7.17502 9.42577 7.19017 9.36343 7.22865C9.21647 6.8812 8.98581 6.6323 8.63666 6.4859C8.75781 6.24806 8.91337 6.07602 9.07041 5.91003C9.18331 5.79069 9.23083 5.66105 9.20177 5.49893C9.15763 5.25269 9.11159 5.00678 9.06208 4.76172C9.02427 4.5745 8.91438 4.44246 8.76274 4.34873C7.85597 3.78826 6.94695 3.2319 6.04355 2.66526C5.8926 2.57058 5.77796 2.62515 5.64473 2.68883C4.8535 3.06698 3.99398 2.5724 3.85297 1.66128C3.74226 0.945955 4.21716 0.22697 4.87524 0.113579C5.57685 -0.00730959 6.2467 0.468933 6.34717 1.1968C6.3829 1.45566 6.49848 1.58225 6.69178 1.70637C7.6826 2.34258 8.68241 2.9617 9.69706 3.55299C10.0127 3.73694 10.1827 4.01001 10.2066 4.38898C10.2196 4.59476 10.2231 4.80123 10.2309 5.0342ZM5.86427 1.22585C5.84708 1.17543 5.83433 1.12262 5.812 1.07496C5.64446 0.71733 5.27779 0.542793 4.90101 0.639125C4.56112 0.726028 4.30038 1.09126 4.3059 1.4727C4.31138 1.85123 4.60113 2.20575 4.96342 2.27722C5.52663 2.38832 5.91816 1.95397 5.86427 1.22585Z" fill="#F1F1F1"/>
<path d="M11.1579 1.12501C11.7438 0.603036 12.5755 0.712636 13.0122 1.35574C13.4479 1.9973 13.2931 2.9029 12.6581 3.30288C12.4899 3.40885 12.4536 3.5248 12.4505 3.71101C12.4308 4.88627 12.4241 6.0618 12.4594 7.23629C12.4749 7.75532 12.2874 8.11644 11.8785 8.36557C11.4931 8.60039 11.1066 8.83292 10.7216 9.06842C10.6078 9.13801 10.4847 9.17361 10.3591 9.14698C10.0166 9.07432 9.6762 8.98971 9.29285 8.89997C9.45775 8.53891 9.62415 8.21096 9.51243 7.8204C9.73067 7.75154 9.91029 7.85141 10.0871 7.90066C10.3757 7.98103 10.587 7.89526 10.8243 7.70461C11.2389 7.37142 11.3599 6.96349 11.3444 6.42414C11.3174 5.48286 11.3533 4.53948 11.3647 3.597C11.3664 3.45852 11.3585 3.33843 11.2369 3.24249C10.5995 2.73945 10.515 1.72167 11.1579 1.12501ZM11.335 2.62301C11.5872 2.95522 11.8902 3.06405 12.2434 2.94925C12.531 2.85577 12.7537 2.54344 12.7736 2.20557C12.7947 1.84576 12.6035 1.51839 12.2882 1.3749C12.0016 1.24446 11.6337 1.32869 11.4109 1.57579C11.1639 1.84961 11.1322 2.18265 11.335 2.62301Z" fill="#F1F1F1"/>
<path d="M10.0704 11.9512C9.43131 11.7046 8.90143 11.2886 8.34314 10.9283C8.27729 10.8858 8.22038 10.7966 8.19619 10.7163C8.0911 10.3675 7.99968 10.0141 7.89209 9.62141C8.26274 9.60858 8.6077 9.59479 8.88068 9.3027C9.04013 9.50095 9.05779 9.73126 9.10942 9.93766C9.17549 10.2018 9.32789 10.3062 9.55089 10.4245C10.1251 10.729 10.5964 10.5681 11.0988 10.2296C11.7936 9.76142 12.5202 9.34695 13.2354 8.91381C13.3746 8.82957 13.4535 8.72763 13.4946 8.5493C13.6793 7.74632 14.394 7.32047 15.1255 7.5568C15.8027 7.77562 16.1701 8.59567 15.9226 9.33588C15.6587 10.1248 14.787 10.4518 14.068 10.0125C13.9025 9.91136 13.7944 9.92781 13.6376 10.0199C12.6889 10.5767 11.7563 11.1634 10.8225 11.7478C10.5969 11.889 10.3706 12.0325 10.0704 11.9512ZM15.1203 8.11111C15.058 8.08517 14.9975 8.05209 14.9333 8.03448C14.6005 7.94321 14.2446 8.09775 14.0625 8.4084C13.8916 8.70001 13.9199 9.14071 14.1254 9.38874C14.3715 9.6857 14.7376 9.77842 15.0577 9.62489C15.6259 9.35246 15.676 8.56607 15.1203 8.11111Z" fill="#F1F1F1"/>
<path d="M6.50845 8.8369C6.57319 8.75422 6.64713 8.69367 6.6941 8.80705C6.83185 9.13956 7.0763 9.34064 7.38997 9.46949C7.30626 9.70251 7.13815 9.83031 6.99822 9.97811C6.84203 10.1431 6.79084 10.3243 6.80581 10.5594C6.84601 11.1905 7.09362 11.6282 7.64346 11.931C8.42355 12.3605 9.16565 12.8694 9.9211 13.3496C10.0385 13.4242 10.1342 13.3979 10.2508 13.3505C10.9287 13.0755 11.6597 13.4088 11.9198 14.1031C12.1788 14.7948 11.862 15.6081 11.231 15.8709C10.5352 16.1607 9.70914 15.8285 9.57796 15.0649C9.4615 14.3871 9.05827 14.1354 8.59749 13.8537C7.80543 13.3693 7.02113 12.8705 6.23035 12.3837C5.91057 12.1869 5.78819 11.8744 5.77915 11.5082C5.76651 10.9967 5.7763 10.4845 5.78132 9.9727C5.78352 9.7489 5.85853 9.55519 6.00979 9.39397C6.17608 9.21674 6.33523 9.03183 6.50845 8.8369ZM10.7885 15.4675C10.8456 15.453 10.9036 15.4416 10.9597 15.4237C11.3063 15.3133 11.5126 15.0311 11.5222 14.6564C11.5318 14.2841 11.344 13.9544 11.057 13.8391C10.7094 13.6996 10.359 13.7851 10.1386 14.0632C9.91016 14.3515 9.88954 14.7317 10.0789 15.0634C10.2329 15.3332 10.4659 15.4474 10.7885 15.4675Z" fill="#F1F1F1"/>
<path d="M4.99773 14.8092C4.18422 15.6023 3.04847 15.1468 2.83721 14.1229C2.71762 13.5432 2.93296 13.0848 3.35953 12.7363C3.48051 12.6375 3.5219 12.5309 3.5288 12.3748C3.58196 11.1725 3.57579 9.9696 3.55353 8.76728C3.54394 8.24926 3.6939 7.8646 4.13699 7.61881C4.55305 7.38802 4.95875 7.13569 5.36732 6.88963C5.52322 6.79574 5.67918 6.7789 5.8504 6.83916C6.12538 6.93593 6.42395 6.94627 6.70539 7.08905C6.55224 7.42434 6.40118 7.74723 6.49894 8.14305C6.27397 8.1919 6.08531 8.1041 5.89965 8.05102C5.6482 7.97914 5.47193 8.06355 5.25667 8.2164C4.72254 8.59565 4.61573 9.11334 4.6401 9.74975C4.67373 10.6281 4.64597 11.5092 4.64334 12.3891C4.64296 12.5178 4.64861 12.6308 4.77125 12.7132C5.46858 13.1818 5.52908 14.1963 4.99773 14.8092ZM4.75701 14.3005C4.93587 13.9595 4.91687 13.6243 4.69988 13.317C4.53216 13.0794 4.2853 12.9782 4.01315 13.0122C3.61973 13.0615 3.34197 13.3798 3.29596 13.7948C3.25773 14.1396 3.47167 14.4966 3.80282 14.6407C4.13603 14.7858 4.48902 14.6705 4.75701 14.3005Z" fill="#F1F1F1"/>
<path d="M4.74356 3.09983C4.84927 3.34697 4.76086 3.49916 4.57463 3.60682C3.58776 4.17734 2.60104 4.74818 1.61227 5.31489C1.40768 5.43215 1.32698 5.37802 1.29305 5.13172C1.21342 4.55368 1.35881 4.087 1.85837 3.78775C2.42077 3.45086 2.97528 3.09814 3.54516 2.77653C3.94556 2.55057 4.42614 2.69042 4.74356 3.09983Z" fill="#F1F1F1"/>
<path d="M13.8239 10.9908C14.037 10.8626 14.2317 10.7396 14.431 10.626C14.5825 10.5396 14.6869 10.542 14.7349 10.77C14.8566 11.3489 14.7311 11.7716 14.2722 12.1025C13.7097 12.5082 13.1106 12.8504 12.5124 13.1911C12.1249 13.4118 11.7588 13.2904 11.4338 13.0261C11.1727 12.8137 11.2166 12.5212 11.5179 12.344C12.2809 11.8955 13.0443 11.448 13.8239 10.9908Z" fill="#F1F1F1"/>
<path d="M14.0417 3.36671C14.3598 3.60769 14.4535 3.95007 14.4611 4.31677C14.4753 4.99778 14.4741 5.67945 14.4647 6.36062C14.4588 6.78659 14.1387 7.21118 13.7553 7.3422C13.4819 7.43568 13.2761 7.27542 13.28 6.95161C13.2919 5.95746 13.3128 4.96345 13.3291 3.96937C13.3326 3.75426 13.3274 3.53891 13.3343 3.32397C13.3402 3.13889 13.4279 3.05742 13.5975 3.1346C13.7434 3.20094 13.8836 3.28143 14.0417 3.36671Z" fill="#F1F1F1"/>
<path d="M8.14002 0.1285C8.75819 0.457514 9.33302 0.826371 9.90224 1.20405C10.2614 1.44236 10.4312 1.94835 10.3268 2.37823C10.2633 2.63994 10.0197 2.74383 9.79088 2.59775C9.02875 2.11122 8.26869 1.62094 7.50802 1.1318C7.2927 0.993339 7.07579 0.857519 6.86378 0.713467C6.73576 0.626484 6.69129 0.519693 6.83065 0.392544C7.21403 0.0427406 7.62715 -0.139746 8.14002 0.1285Z" fill="#F1F1F1"/>
<path d="M5.94937 14.6779C5.67071 14.4173 5.60892 14.0839 5.63071 13.7369C5.65478 13.3537 5.94016 13.2056 6.23745 13.4107C7.12291 14.0215 8.03251 14.5895 8.93496 15.1703C8.97786 15.1979 9.01708 15.2322 9.05757 15.264C9.27276 15.4331 9.27474 15.4917 9.07437 15.6663C8.66529 16.0229 8.23049 16.1195 7.75007 15.8298C7.1458 15.4655 6.53221 15.1183 5.94937 14.6779Z" fill="#F1F1F1"/>
<path d="M2.68454 10.7113C2.67657 11.3298 2.67408 11.9229 2.65906 12.5156C2.64973 12.8837 2.57924 12.9197 2.25993 12.776C1.77186 12.5564 1.53114 12.1743 1.53952 11.6022C1.54886 10.9644 1.54081 10.3262 1.5434 9.68821C1.54547 9.17784 1.79825 8.79662 2.24576 8.61948C2.50603 8.51646 2.73289 8.66744 2.73183 8.96276C2.72978 9.53732 2.73576 10.1126 2.68454 10.7113Z" fill="#F1F1F1"/>
<path d="M7.38999 8.9465C6.88087 8.55762 6.79682 7.72625 7.20322 7.25758C7.63867 6.75541 8.16698 6.68714 8.70606 7.06338C9.08641 7.32884 9.19438 8.25753 8.88504 8.60951C8.7931 8.71413 8.69808 8.81564 8.60491 8.91903C8.4267 9.11678 8.21755 9.19087 7.96489 9.11339C7.7801 9.05673 7.59306 9.00853 7.38999 8.9465Z" fill="#F1F1F1"/>
</svg>
